#!OML:ASF E:\emotionWalksFemale\Project 1\Capture day 1\Session 1\Female1.ASF
:FULLY-SPECIFIED
:DEGREES
1079
root 7.35111 14.9739 -5.64712 202.194 32.5854 -167.366
lowerback 19.9313 2.84761 -6.33678
upperback -0.566215 2.27241 -1.06594
thorax -12.0846 1.46048 1.72543
lowerneck -8.34287 6.47715 1.58058
upperneck -4.16795 8.83571 1.3139
head 0.076458 4.5481 0.360641
rclavicle 4.77083e-015 3.02153e-014
rhumerus -51.1523 14.2163 -96.9467
rradius 44.3893
rwrist 0.963896
rhand -2.82479 -53.8499
rfingers 7.12502
rthumb 22.8821 -82.5123
lclavicle 4.77083e-015 3.02153e-014
lhumerus -25.4173 4.68758 72.4136
lradius 42.277
lwrist -7.62939
lhand -11.7059 -34.7625
lfingers 7.12502
lthumb 14.3404 -5.27776
rfemur 1.89033 -2.88396 25.6391
rtibia 14.4332
rfoot -19.2351 -39.7985
rtoes 32.8963
lfemur -49.6181 4.16356 -7.19514
ltibia 48.0471
lfoot -17.9044 8.32464
ltoes -21.5816
1080
root 7.33677 14.982 -5.74477 202.332 32.5759 -167.492
lowerback 20.0159 2.83432 -6.58092
upperback -0.489601 2.18717 -1.20355
thorax -12.0423 1.43233 1.73461
lowerneck -8.69698 6.41507 1.47965
upperneck -4.08274 8.76161 1.43541
head 0.150951 4.5191 0.426856
rclavicle 1.00187e-013 -7.4743e-014
rhumerus -51.0883 14.4138 -97.0499
rradius 44.8008
rwrist 1.25529
rhand -2.67704 -53.918
rfingers 7.12502
rthumb 23.0239 -82.5628
lclavicle 1.00187e-013 -7.4743e-014
lhumerus -24.3921 4.15485 72.3879
lradius 42.6752
lwrist -6.86145
lhand -11.6125 -34.2817
lfingers 7.12502
lthumb 14.4304 -4.80339
rfemur 1.21651 -3.50662 25.4696
rtibia 15.0667
rfoot -17.709 -40.1524
rtoes 30.9176
lfemur -49.6285 4.06215 -7.58516
ltibia 48.2261
lfoot -18.3886 8.27506
ltoes -21.7886
1081
root 7.32663 14.9982 -5.84082 202.482 32.6664 -167.518
lowerback 20.0531 2.84914 -6.86368
upperback -0.421976 2.13617 -1.30821
thorax -11.9891 1.42303 1.79332
lowerneck -8.39295 6.44651 1.42855
upperneck -4.55746 8.84753 1.54195
head -0.0530336 4.56664 0.44423
rclavicle 6.20208e-014 -4.77083e-015
rhumerus -50.9727 14.5663 -97.2046
rradius 44.9946
rwrist 1.3784
rhand -2.8958 -53.8451
rfingers 7.12502
rthumb 22.814 -82.5159
lclavicle 6.20208e-014 -4.77083e-015
lhumerus -23.5293 3.73225 72.3463
lradius 43.2369
lwrist -6.06089
lhand -12.3769 -34.5593
lfingers 7.12502
lthumb 13.6938 -5.02984
rfemur 0.508539 -4.12146 25.37
rtibia 15.6857
rfoot -15.2916 -40.7497
rtoes 27.9396
lfemur -49.5277 4.05642 -7.91535
ltibia 48.3704
lfoot -19.104 8.19551
ltoes -20.6072
1082
root 7.31986 15.0111 -5.93323 202.63 32.638 -167.342
lowerback 20.1975 2.86616 -6.9629
upperback -0.338082 2.12833 -1.36014
thorax -11.976 1.42457 1.79073
lowerneck -7.7514 6.57771 1.39246
upperneck -5.38457 9.10183 1.75023
head -0.422395 4.69912 0.470757
rclavicle 2.70347e-014 -1.74931e-014
rhumerus -50.8655 14.6387 -97.3876
rradius 45.1482
rwrist 1.27649
rhand -3.40797 -53.8954
rfingers 7.12502
rthumb 22.3224 -82.626
lclavicle 2.70347e-014 -1.74931e-014
lhumerus -22.6061 3.31994 72.2867
lradius 43.6572
lwrist -5.3889
lhand -13.6099 -35.3035
lfingers 7.12502
lthumb 12.5053 -5.69764
rfemur 0.130677 -4.38562 25.4718
rtibia 16.4067
rfoot -18.7051 -39.4315
rtoes 33.3956
lfemur -49.3673 4.14428 -8.05477
ltibia 48.5111
lfoot -18.9559 9.11118
ltoes -31.2058
1083
root 7.31189 15.019 -6.01892 202.85 32.4814 -167.214
lowerback 20.2916 2.82985 -7.01835
upperback -0.243006 2.06621 -1.40427
thorax -11.9148 1.39738 1.79128
lowerneck -8.4042 6.4837 1.63641
upperneck -4.93488 8.91963 1.58546
head -0.161953 4.60967 0.417327
rclavicle -1.15295e-013 6.04305e-014
rhumerus -50.7111 14.6921 -97.4949
rradius 45.3037
rwrist 1.17311
rhand -4.11529 -53.7063
rfingers 7.12502
rthumb 21.6432 -82.5166
lclavicle -1.15295e-013 6.04305e-014
lhumerus -21.6073 2.93461 72.1882
lradius 44.0658
lwrist -4.84825
lhand -13.9533 -35.3037
lfingers 7.12502
lthumb 12.1742 -5.67798
rfemur -0.507291 -4.7063 25.6725
rtibia 17.1231
rfoot -19.2201 -38.6816
rtoes 33.7378
lfemur -49.3742 4.20342 -8.20349
ltibia 48.6454
lfoot -19.4847 8.47381
ltoes -26.3643
1084
root 7.30042 15.0263 -6.09496 203.116 32.2788 -167.214
lowerback 20.3439 2.76165 -7.09992
upperback -0.19522 1.95322 -1.46413
thorax -11.8801 1.34827 1.80487
lowerneck -8.57141 6.47827 1.32598
upperneck -4.95779 8.95554 1.92048
head -0.170518 4.64003 0.572566
rclavicle 2.22639e-014 -4.6118e-014
rhumerus -50.509 14.7414 -97.5552
rradius 45.3634
rwrist 1.29979
rhand -4.10472 -53.4623
rfingers 7.12502
rthumb 21.6534 -82.2715
lclavicle 2.22639e-014 -4.6118e-014
lhumerus -20.7379 2.65098 72.1074
lradius 44.6011
lwrist -4.43189
lhand -13.1409 -34.4987
lfingers 7.12502
lthumb 12.9573 -4.92106
rfemur -1.31858 -5.08995 25.8263
rtibia 17.7884
rfoot -18.6621 -38.2691
rtoes 32.4252
lfemur -49.542 4.14797 -8.4154
ltibia 48.7818
lfoot -19.9838 7.76838
ltoes -19.7681
1085
root 7.2867 15.0338 -6.1715 203.2 32.0729 -167.098
lowerback 20.713 2.71185 -7.02905
upperback -0.147757 1.87579 -1.5045
thorax -12.0233 1.31149 1.73234
lowerneck -8.47996 6.39343 1.02797
upperneck -5.16973 8.90451 2.35112
head -0.281966 4.62594 0.738829
rclavicle -1.51076e-014 -6.04305e-014
rhumerus -50.3533 14.7836 -97.6006
rradius 45.4416
rwrist 1.83272
rhand -3.19389 -53.561
rfingers 7.12502
rthumb 22.5279 -82.2667
lclavicle -1.51076e-014 -6.04305e-014
lhumerus -19.9192 2.47857 72.0139
lradius 45.0123
lwrist -4.22082
lhand -12.4149 -34.2489
lfingers 7.12502
lthumb 13.6571 -4.71697
rfemur -1.90082 -5.57735 26.0565
rtibia 18.4834
rfoot -18.2419 -37.6232
rtoes 31.0474
lfemur -49.436 4.12301 -8.53477
ltibia 48.9159
lfoot -20.2819 7.46232
ltoes -18.3666
1086
root 7.27419 15.0385 -6.24852 203.396 31.8697 -166.915
lowerback 20.9602 2.63569 -6.95016
upperback -0.100603 1.77777 -1.52171
thorax -12.0965 1.26339 1.69243
lowerneck -8.69713 6.38615 0.897771
upperneck -5.09328 8.9162 2.62201
head -0.241398 4.64186 0.852585
rclavicle -6.83819e-014 7.95139e-015
rhumerus -50.2549 14.9127 -97.6948
rradius 45.6693
rwrist 2.2806
rhand -2.51685 -53.8338
rfingers 7.12502
rthumb 23.1776 -82.4593
lclavicle -6.83819e-014 7.95139e-015
lhumerus -19.0398 2.19561 71.8499
lradius 45.3156
lwrist -3.79149
lhand -12.3636 -34.4138
lfingers 7.12502
lthumb 13.7066 -4.88515
rfemur -2.57533 -5.92131 26.4124
rtibia 19.1207
rfoot -17.4175 -37.311
rtoes 29.3875
lfemur -49.4353 4.18931 -8.625
ltibia 49.0562
lfoot -20.4964 7.11051
ltoes -17.4421
1087
root 7.26561 15.0471 -6.32445 203.597 31.7044 -166.802
lowerback 21.0339 2.59008 -7.01371
upperback -0.0469779 1.70344 -1.51063
thorax -12.0722 1.23332 1.76347
lowerneck -8.64134 6.48216 0.698632
upperneck -5.17124 9.07511 2.78828
head -0.292702 4.72642 0.93383
rclavicle -1.59028e-014 3.49861e-014
rhumerus -50.206 15.0282 -97.7606
rradius 45.8491
rwrist 2.5501
rhand -2.35838 -53.8932
rfingers 7.12502
rthumb 23.3296 -82.4996
lclavicle -1.59028e-014 3.49861e-014
lhumerus -18.2205 1.7618 71.7608
lradius 45.6859
lwrist -3.24776
lhand -12.5041 -34.2423
lfingers 7.12502
lthumb 13.5712 -4.70458
rfemur -3.23145 -6.17524 26.7249
rtibia 19.6452
rfoot -16.9228 -37.0796
rtoes 28.2185
lfemur -49.4619 4.24944 -8.76503
ltibia 49.1806
lfoot -20.6007 6.62887
ltoes -15.2745
